<svg width="236" height="192" viewBox="0 0 236 192" fill="none" xmlns="http://www.w3.org/2000/svg">
<path d="M122.904 107.681C123.345 99.818 127.196 92.8904 133.005 87.9796C138.701 83.1561 146.369 80.208 154.735 80.208C163.093 80.208 170.761 83.1561 176.462 87.9796C182.267 92.8904 186.117 99.8179 186.562 107.673C187.003 115.752 183.755 123.258 178.058 128.821C172.25 134.48 163.987 138.032 154.735 138.032C145.483 138.032 137.204 134.48 131.4 128.821C125.699 123.258 122.459 115.752 122.904 107.681Z" fill="#265787"/>
<path d="M72.2084 123.565C72.2624 126.642 73.2437 132.622 74.7157 137.291C77.8094 147.175 83.057 156.319 90.3587 164.378C97.8518 172.661 107.079 179.314 117.736 184.038C128.938 188.998 141.076 191.527 153.684 191.506C166.27 191.489 178.408 188.911 189.61 183.913C200.268 179.143 209.486 172.461 216.967 164.174C224.264 156.082 229.504 146.922 232.606 137.038C234.165 132.044 235.151 126.975 235.546 121.89C235.932 116.879 235.77 111.86 235.059 106.845C233.67 97.0735 230.29 87.9048 225.084 79.5468C220.322 71.8667 214.185 65.143 206.888 59.4837L206.904 59.4711L133.259 2.92416C133.192 2.87426 133.138 2.82028 133.067 2.77454C128.236 -0.934546 120.111 -0.922051 114.796 2.79536C109.424 6.55434 108.809 12.7707 113.59 16.6919L113.57 16.7127L144.286 41.6908L50.6648 41.7907H50.5401C42.8017 41.799 35.3628 46.8761 33.8908 53.2921C32.3772 59.8288 37.6331 65.251 45.6792 65.2801L45.6667 65.3093L93.1198 65.2178L8.4427 130.214C8.33459 130.293 8.21815 130.376 8.11835 130.455C0.1305 136.572 -2.45167 146.743 2.57973 153.18C7.68597 159.725 18.543 159.737 26.614 153.217L72.8279 115.394C72.8279 115.394 72.1543 120.501 72.2084 123.565ZM190.962 140.664C181.439 150.365 168.108 155.866 153.684 155.895C139.238 155.92 125.907 150.469 116.385 140.784C111.732 136.065 108.314 130.634 106.206 124.85C104.139 119.166 103.336 113.132 103.869 107.045C104.372 101.095 106.143 95.4186 108.971 90.2832C111.748 85.2352 115.574 80.6738 120.298 76.815C129.554 69.272 141.338 65.1886 153.663 65.172C166 65.1554 177.776 69.2013 187.041 76.7193C191.756 80.5614 195.577 85.1063 198.355 90.146C201.195 95.2772 202.954 100.932 203.478 106.899C204.002 112.979 203.199 119.004 201.133 124.692C199.02 130.493 195.615 135.923 190.962 140.664Z" fill="#EA7600"/>
</svg>
