<svg width="978" height="675" viewBox="0 0 978 675" fill="none" xmlns="http://www.w3.org/2000/svg">
<rect width="172.522" height="297" rx="7" transform="matrix(0.866025 0.5 -0.866025 0.5 484.21 235)" fill="#2D2D2D"/>
<mask id="mask0_70_9" style="mask-type:alpha" maskUnits="userSpaceOnUse" x="230" y="237" width="401" height="231">
<rect width="172.522" height="297" rx="7" transform="matrix(0.866025 0.5 -0.866025 0.5 484.21 235)" fill="#2D2D2D"/>
</mask>
<g mask="url(#mask0_70_9)">
<rect width="89.2828" height="15.0108" rx="7.50541" transform="matrix(0.866025 0.5 -0.866025 0.5 460 259)" fill="#4E4E4E"/>
<rect width="77.2464" height="15.0108" rx="7.50541" transform="matrix(0.866025 0.5 -0.866025 0.5 438 272)" fill="#454545"/>
<rect width="94.3195" height="15.0108" rx="7.50541" transform="matrix(0.866025 0.5 -0.866025 0.5 415 288)" fill="#3C3A3A"/>
<rect width="65.2884" height="15.0108" rx="7.50541" transform="matrix(0.866025 0.5 -0.866025 0.5 390 302)" fill="#353535"/>
<rect width="81.4371" height="15.0108" rx="7.50541" transform="matrix(0.866025 0.5 -0.866025 0.5 365 319)" fill="#00B45A"/>
<rect width="81.4371" height="82.5837" rx="10" transform="matrix(0.866025 0.5 -0.866025 0.5 281.52 315)" fill="#383838"/>
<rect width="81.4371" height="82.5837" rx="10" transform="matrix(0.866025 0.5 -0.866025 0.5 359.52 358)" fill="#383838"/>
<rect width="81.4371" height="82.5837" rx="10" transform="matrix(0.866025 0.5 -0.866025 0.5 439.52 399)" fill="#383838"/>
<rect width="67.6651" height="135.469" rx="10" transform="matrix(0.866025 0.5 -0.866025 0.5 568.509 309.656)" fill="#4E4E4E"/>
</g>
<rect width="172.522" height="297" rx="7" transform="matrix(0.866025 0.5 -0.866025 0.5 786.21 265)" fill="#2D2D2D"/>
<mask id="mask1_70_9" style="mask-type:alpha" maskUnits="userSpaceOnUse" x="532" y="267" width="401" height="231">
<rect width="172.522" height="297" rx="7" transform="matrix(0.866025 0.5 -0.866025 0.5 786.21 265)" fill="#2D2D2D"/>
</mask>
<g mask="url(#mask1_70_9)">
<rect width="172.522" height="249.347" rx="7" transform="matrix(0.866025 0.5 -0.866025 0.5 786.595 265)" fill="#454545"/>
<rect width="134.184" height="79.8477" rx="10" transform="matrix(0.866025 0.5 -0.866025 0.5 787.165 282)" fill="#515151"/>
<rect width="134.184" height="79.8477" rx="10" transform="matrix(0.866025 0.5 -0.866025 0.5 708.15 328)" fill="#515151"/>
<rect width="134.184" height="79.8477" rx="10" transform="matrix(0.866025 0.5 -0.866025 0.5 628.15 375)" fill="#515151"/>
<rect width="134.184" height="79.8477" rx="10" transform="matrix(0.866025 0.5 -0.866025 0.5 551.15 422)" fill="#515151"/>
<rect width="4" height="89" rx="2" transform="matrix(-0.866025 -0.5 -0.866025 0.5 781.272 279)" fill="#00B45A"/>
</g>
<rect width="172.522" height="297" rx="7" transform="matrix(0.866025 0.5 -0.866025 0.5 762.21 77)" fill="#2D2D2D"/>
<rect width="134.184" height="77.9704" rx="10" transform="matrix(0.866025 0.5 -0.866025 0.5 614.524 182.054)" fill="#454545"/>
<rect width="134.184" height="186.098" rx="10" transform="matrix(0.866025 0.5 -0.866025 0.5 756.092 100.563)" fill="#515151"/>
<circle cx="10" cy="10" r="10" transform="matrix(0.866025 0.5 -0.866025 0.5 625.32 230)" fill="#00B45A"/>
<g clip-path="url(#clip0_70_9)">
<path d="M459.522 51.918C463.52 49.6264 470.195 50.1464 472.998 52.9679L572.731 153.347C574.659 155.287 574.093 157.733 571.35 159.313L446.471 231.268C443.121 233.198 437.698 233.196 434.352 231.265L297.084 152.013C293.728 150.075 293.738 146.931 297.107 145L459.522 51.918Z" fill="#2D2D2D"/>
<rect width="172.522" height="297" rx="7" transform="matrix(0.866025 0.5 -0.866025 0.5 551.21 0)" fill="#2D2D2D" fill-opacity="0.27"/>
<mask id="mask2_70_9" style="mask-type:alpha" maskUnits="userSpaceOnUse" x="294" y="50" width="280" height="183">
<path d="M459.522 51.918C463.52 49.6264 470.195 50.1464 472.998 52.9679L572.731 153.347C574.659 155.287 574.093 157.733 571.35 159.313L446.471 231.268C443.121 233.198 437.698 233.196 434.352 231.265L297.084 152.013C293.728 150.075 293.738 146.931 297.107 145L459.522 51.918Z" fill="#2D2D2D"/>
</mask>
<g mask="url(#mask2_70_9)">
<rect width="141.943" height="90.4945" rx="7" transform="matrix(0.866025 0.5 -0.866025 0.5 489.679 51.9069)" fill="#454545"/>
<rect width="141.943" height="90.4945" rx="7" transform="matrix(0.866025 0.5 -0.866025 0.5 398.37 101)" fill="#454545"/>
</g>
<ellipse cx="5" cy="5" rx="5" ry="5" transform="matrix(0.866025 0.5 -0.866025 0.5 687.66 81)" fill="#2D2D2D"/>
<ellipse cx="5" cy="5" rx="5" ry="5" transform="matrix(0.866025 0.5 -0.866025 0.5 618.66 41)" fill="#2D2D2D"/>
<ellipse cx="5" cy="5" rx="5" ry="5" transform="matrix(0.866025 0.5 -0.866025 0.5 533.66 91)" fill="#2D2D2D"/>
<ellipse cx="5" cy="5" rx="5" ry="5" transform="matrix(0.866025 0.5 -0.866025 0.5 590.66 141)" fill="#2D2D2D"/>
<ellipse cx="5" cy="5" rx="5" ry="5" transform="matrix(0.866025 0.5 -0.866025 0.5 547.66 0)" fill="#2D2D2D"/>
</g>
<rect width="172.522" height="297" rx="7" transform="matrix(0.866025 0.5 -0.866025 0.5 257.21 163)" fill="#2D2D2D"/>
<rect width="172.522" height="297" rx="7" transform="matrix(0.866025 0.5 -0.866025 0.5 828.21 440)" fill="#2D2D2D"/>
<defs>
<clipPath id="clip0_70_9">
<rect width="409.618" height="234.839" fill="white" transform="translate(291)"/>
</clipPath>
</defs>
</svg>
