<svg width="210" height="210" viewBox="0 0 210 210" fill="none" xmlns="http://www.w3.org/2000/svg">
<path fill-rule="evenodd" clip-rule="evenodd" d="M1.38158 35.98V122.687L30.986 140.029V53.3218L1.38158 35.98Z" fill="#C9C9C9"/>
<path fill-rule="evenodd" clip-rule="evenodd" d="M60.5933 1.29626L90.1978 18.6381L30.986 53.3218L1.38158 35.98L60.5933 1.29626Z" fill="#E3E3E3"/>
<path fill-rule="evenodd" clip-rule="evenodd" d="M90.1978 18.6381V105.345L30.9861 140.028V53.3218L90.1978 18.6381Z" fill="url(#paint0_linear_31_10)"/>
<path fill-rule="evenodd" clip-rule="evenodd" d="M27.1812 63.2904L5.18921 50.2833V46.8145L27.1812 59.8215V63.2904ZM27.1812 68.9267L5.18921 55.9222V52.4533L27.1812 65.4604V68.9267ZM27.1812 74.563L5.18921 61.5559V58.087L27.1812 71.0941V74.563Z" fill="#00B45A"/>
<path d="M14.3835 122.365C16.4518 123.485 18.9345 123.084 19.9287 121.468C20.9229 119.852 20.0522 117.634 17.9839 116.514C15.9156 115.393 13.4329 115.795 12.4387 117.41C11.4445 119.026 12.3152 121.244 14.3835 122.365Z" fill="url(#paint1_linear_31_10)"/>
<path fill-rule="evenodd" clip-rule="evenodd" d="M152.151 130.081L128.874 137.387C123.535 139.006 123.071 141.087 127.481 143.63L149.415 156.116C153.129 158.196 156.842 157.272 160.556 153.341L172.125 140.938L152.151 130.081Z" fill="url(#paint2_linear_31_10)"/>
<path fill-rule="evenodd" clip-rule="evenodd" d="M172.125 140.938L160.556 153.341C158.266 155.765 155.977 157.045 153.687 157.184V160.121C155.977 159.983 158.266 158.688 160.556 156.237L172.125 143.834V140.938Z" fill="url(#paint3_linear_31_10)"/>
<path fill-rule="evenodd" clip-rule="evenodd" d="M124.511 140.215C124.323 141.242 125.313 142.38 127.481 143.63L149.415 156.116C150.839 156.914 152.263 157.27 153.687 157.184V160.121C152.263 160.208 150.839 159.838 149.415 159.012L127.481 146.526C125.313 145.276 124.323 144.138 124.511 143.111L124.491 140.215" fill="#C9C9C9"/>
<path fill-rule="evenodd" clip-rule="evenodd" d="M204.394 168.809C207.21 168.327 208.618 166.879 208.618 164.466V84.8374C208.618 83.6189 208.325 82.5533 207.737 81.6407L201.705 84.8374L204.394 168.809Z" fill="url(#paint4_linear_31_10)"/>
<path fill-rule="evenodd" clip-rule="evenodd" d="M98.3656 26.1981C100.158 24.2675 102.206 23.9054 104.511 25.1118L205.159 79.4033C206.299 79.9996 207.158 80.7437 207.734 81.6355L201.702 84.8322L98.3656 26.1981ZM205.159 155.418L97.5975 97.5048V109.089C97.5975 111.019 98.4937 112.467 100.286 113.431L202.47 168.449C204.263 169.413 205.159 168.931 205.159 167.002V155.418Z" fill="#E3E3E3"/>
<path fill-rule="evenodd" clip-rule="evenodd" d="M97.5975 97.5048V28.0104C97.5975 26.0797 98.4937 25.5975 100.286 26.5637L202.47 81.5811C204.263 82.5455 205.159 83.9931 205.159 85.9237V155.418L97.5975 97.5048Z" fill="#00B45A"/>
<path fill-rule="evenodd" clip-rule="evenodd" d="M201.705 149.987V84.8348L101.057 30.5433V95.6952L201.705 149.987Z" fill="url(#paint5_linear_31_10)"/>
<path fill-rule="evenodd" clip-rule="evenodd" d="M171.156 192.513C171.279 192.447 171.295 192.695 171.202 193.257L171.156 192.513Z" fill="#C1C1C1" fill-opacity="0.56"/>
<path fill-rule="evenodd" clip-rule="evenodd" d="M127.067 205.092L42.887 157.897L78.3106 138.369L162.49 185.155L127.067 205.092Z" fill="#ECEFF1"/>
<path fill-rule="evenodd" clip-rule="evenodd" d="M162.863 185.22L126.995 205.406V208.704L162.863 188.518V185.22Z" fill="#C9C9C9"/>
<path fill-rule="evenodd" clip-rule="evenodd" d="M126.995 208.704V205.409L41.7513 157.619V160.914L126.995 208.704Z" fill="#C9C9C9"/>
<path fill-rule="evenodd" clip-rule="evenodd" d="M126.995 205.406L41.7513 157.617L77.6199 137.843L162.863 185.22L126.995 205.406ZM74.666 174.098L103.361 190.164L108.426 187.281L79.7309 171.215L74.666 174.098ZM151.468 183.986L156.533 186.869L159.487 185.22L154.422 182.337L151.468 183.986ZM145.56 180.691L150.625 183.574L153.579 181.925L148.514 179.042L145.56 180.691ZM139.653 177.395L144.718 180.278L147.671 178.63L142.607 175.747L139.653 177.395ZM133.745 174.1L138.81 176.983L141.764 175.334L136.699 172.451L133.745 174.1ZM127.838 170.805L132.902 173.688L135.856 172.039L130.791 169.156L127.838 170.805ZM121.93 167.51L126.995 170.393L129.949 168.744L124.884 165.861L121.93 167.51ZM116.022 164.215L121.087 167.098L124.041 165.449L118.976 162.566L116.022 164.215ZM110.115 160.92L115.179 163.803L118.133 162.154L113.068 159.271L110.115 160.92ZM104.207 157.624L109.272 160.507L112.226 158.858L107.161 155.975L104.207 157.624ZM98.2993 154.329L103.364 157.212L106.318 155.563L101.253 152.68L98.2993 154.329ZM92.3917 151.034L97.4566 153.917L100.41 152.268L95.3455 149.385L92.3917 151.034ZM86.4841 147.739L91.5489 150.622L94.5028 148.973L89.4379 146.09L86.4841 147.739ZM80.5737 144.433L85.6386 147.316L88.5924 145.667L83.5275 142.784L80.5737 144.433ZM74.666 141.138L79.7309 144.021L82.6847 142.372L77.6199 139.489L74.666 141.138ZM141.764 185.22L150.625 190.164L155.69 187.281L146.829 182.337L141.764 185.22ZM135.856 181.925L140.921 184.808L145.986 181.925L140.921 179.042L135.856 181.925ZM129.949 178.63L135.013 181.513L140.078 178.63L135.013 175.747L129.949 178.63ZM124.041 175.334L129.106 178.217L134.171 175.334L129.106 172.451L124.041 175.334ZM118.133 172.039L123.198 174.922L128.263 172.039L123.198 169.156L118.133 172.039ZM112.226 168.744L117.291 171.627L122.355 168.744L117.291 165.861L112.226 168.744ZM106.318 165.449L111.383 168.332L116.448 165.449L111.383 162.566L106.318 165.449ZM100.41 162.154L105.475 165.037L110.54 162.154L105.475 159.271L100.41 162.154ZM94.5 158.853L99.5649 161.736L104.63 158.853L99.5649 155.97L94.5 158.853ZM88.5924 155.558L93.6572 158.441L98.7221 155.558L93.6572 152.675L88.5924 155.558ZM82.6847 152.263L87.7496 155.146L92.8145 152.263L87.7496 149.38L82.6847 152.263ZM76.7771 148.968L81.842 151.851L86.9068 148.968L81.842 146.085L76.7771 148.968ZM68.7584 144.436L75.9316 148.555L80.9964 145.673L73.8233 141.553L68.7584 144.436ZM138.81 190.164L144.718 193.459L149.783 190.576L143.875 187.281L138.81 190.164ZM132.902 186.869L137.967 189.752L143.032 186.869L137.967 183.986L132.902 186.869ZM126.995 183.574L132.06 186.457L137.124 183.574L132.06 180.691L126.995 183.574ZM121.087 180.278L126.152 183.161L131.217 180.278L126.152 177.395L121.087 180.278ZM115.179 176.983L120.244 179.866L125.309 176.983L120.244 174.1L115.179 176.983ZM109.272 173.688L114.337 176.571L119.402 173.688L114.337 170.805L109.272 173.688ZM103.364 170.393L108.429 173.276L113.494 170.393L108.429 167.51L103.364 170.393ZM97.4566 167.098L102.521 169.981L107.586 167.098L102.521 164.215L97.4566 167.098ZM91.5489 163.803L96.6138 166.685L101.679 163.803L96.6138 160.92L91.5489 163.803ZM85.6413 160.507L90.7062 163.39L95.771 160.507L90.7062 157.624L85.6413 160.507ZM79.7337 157.212L84.7985 160.095L89.8634 157.212L84.7985 154.329L79.7337 157.212ZM73.8261 153.917L78.8909 156.8L83.9558 153.917L78.8909 151.034L73.8261 153.917ZM67.9184 150.622L72.9833 153.505L78.0482 150.622L72.9833 147.739L67.9184 150.622ZM62.8535 147.739L67.0729 150.21L72.1378 147.327L67.9184 144.856L62.8535 147.739ZM124.044 188.525L129.109 191.408L134.173 188.525L129.109 185.643L124.044 188.525ZM129.951 191.821L138.813 196.765L143.878 193.882L135.016 188.938L129.951 191.821ZM118.136 185.228L123.201 188.111L128.266 185.228L123.201 182.345L118.136 185.228ZM112.228 181.933L117.293 184.815L122.358 181.933L117.293 179.05L112.228 181.933ZM100.413 175.342L105.478 178.225L110.543 175.342L105.478 172.459L100.413 175.342ZM106.321 178.637L111.386 181.52L116.451 178.637L111.386 175.754L106.321 178.637ZM88.5979 168.749L93.6628 171.632L98.7276 168.749L93.6628 165.866L88.5979 168.749ZM94.5055 172.044L99.5704 174.927L104.635 172.044L99.5704 169.161L94.5055 172.044ZM76.7826 162.156L81.8475 165.039L86.9124 162.156L81.8475 159.273L76.7826 162.156ZM82.6903 165.451L87.7551 168.334L92.82 165.451L87.7551 162.568L82.6903 165.451ZM64.9674 155.563L70.0322 158.446L75.0971 155.563L70.0322 152.68L64.9674 155.563ZM70.875 158.858L75.9399 161.741L81.0047 158.858L75.9399 155.975L70.875 158.858ZM56.9487 151.031L64.1218 155.151L69.1867 152.268L62.0136 148.148L56.9487 151.031ZM121.935 193.877L132.908 200.057L137.973 197.174L127 190.994L121.935 193.877ZM116.028 190.581L121.093 193.464L126.158 190.581L121.093 187.698L116.028 190.581ZM110.12 187.286L115.185 190.169L120.25 187.286L115.185 184.403L110.12 187.286ZM104.212 183.991L109.277 186.874L114.342 183.991L109.277 181.108L104.212 183.991ZM98.3049 180.696L103.37 183.579L108.435 180.696L103.37 177.813L98.3049 180.696ZM92.3972 177.401L97.4621 180.284L102.527 177.401L97.4621 174.518L92.3972 177.401ZM86.4896 174.105L91.5545 176.988L96.6193 174.105L91.5545 171.223L86.4896 174.105ZM80.5737 170.8L85.6386 173.683L90.7034 170.8L85.6386 167.917L80.5737 170.8ZM74.666 167.505L79.7309 170.388L84.7958 167.505L79.7309 164.622L74.666 167.505ZM68.7584 164.21L73.8233 167.093L78.8882 164.21L73.8233 161.327L68.7584 164.21ZM62.8508 160.914L67.9157 163.797L72.9805 160.914L67.9157 158.031L62.8508 160.914ZM51.0355 154.321L62.008 160.502L67.0729 157.619L56.1004 151.438L51.0355 154.321ZM45.1279 157.617L50.1928 160.5L55.2576 157.617L50.1928 154.734L45.1279 157.617ZM51.0355 160.912L56.1004 163.795L61.1653 160.912L56.1004 158.029L51.0355 160.912ZM56.9432 164.207L62.008 167.09L67.0729 164.207L62.008 161.324L56.9432 164.207ZM62.8508 167.502L67.9157 170.385L72.9805 167.502L67.9157 164.619L62.8508 167.502ZM68.7584 170.797L73.8233 173.68L78.8882 170.797L73.8233 167.914L68.7584 170.797ZM104.207 190.571L109.272 193.454L114.337 190.571L109.272 187.688L104.207 190.571ZM118.976 195.515L124.041 198.398L126.152 197.161L121.087 194.278L118.976 195.515ZM116.022 197.164L121.087 200.047L123.198 198.81L118.133 195.927L116.022 197.164ZM121.93 200.459L126.995 203.342L129.106 202.105L124.041 199.223L121.93 200.459ZM110.115 193.869L115.179 196.752L117.291 195.515L112.226 192.632L110.115 193.869Z" fill="#646464"/>
<defs>
<linearGradient id="paint0_linear_31_10" x1="30.9861" y1="6088.16" x2="5952.16" y2="6088.16" gradientUnits="userSpaceOnUse">
<stop stop-color="#C9C9C9"/>
<stop offset="1" stop-color="#B0B0B0"/>
</linearGradient>
<linearGradient id="paint1_linear_31_10" x1="763.237" y1="520.226" x2="-258.733" y2="921.399" gradientUnits="userSpaceOnUse">
<stop stop-color="#00B45A"/>
<stop offset="1" stop-color="#999999"/>
</linearGradient>
<linearGradient id="paint2_linear_31_10" x1="4078.35" y1="130.081" x2="2796.81" y2="3541.32" gradientUnits="userSpaceOnUse">
<stop stop-color="#B0B0B0"/>
<stop offset="1" stop-color="white"/>
</linearGradient>
<linearGradient id="paint3_linear_31_10" x1="153.687" y1="1100.07" x2="1997.54" y2="1100.07" gradientUnits="userSpaceOnUse">
<stop stop-color="#C9C9C9"/>
<stop offset="1" stop-color="#B0B0B0"/>
</linearGradient>
<linearGradient id="paint4_linear_31_10" x1="201.705" y1="4440.05" x2="893.047" y2="4440.05" gradientUnits="userSpaceOnUse">
<stop stop-color="#D6D6D6"/>
<stop offset="1" stop-color="#C9C9C9"/>
</linearGradient>
<linearGradient id="paint5_linear_31_10" x1="10165.9" y1="30.5433" x2="-1605.52" y2="9949.61" gradientUnits="userSpaceOnUse">
<stop offset="0.810417" stop-color="#4D4D4D"/>
<stop offset="1" stop-color="#00AAFF"/>
</linearGradient>
</defs>
</svg>
