<svg width="45" height="39" viewBox="0 0 45 39" fill="none" xmlns="http://www.w3.org/2000/svg">
<rect width="45" height="39" fill="#F5F5F5"/>
<path d="M-64 -31C-64 -32.1046 -63.1046 -33 -62 -33H1473C1474.1 -33 1475 -32.1046 1475 -31V887C1475 888.105 1474.1 889 1473 889H-62C-63.1045 889 -64 888.105 -64 887V-31Z" fill="#1A1A1A"/>
<path d="M24.232 7L22.5 4L20.7679 7L5.61251 33.25L3.88045 36.25H7.34456H37.6554H41.1195L39.3875 33.25L24.232 7Z" stroke="white" stroke-width="4"/>
<path d="M-62 -32H1473V-34H-62V-32ZM1474 -31V887H1476V-31H1474ZM1473 888H-62V890H1473V888ZM-63 887V-31H-65V887H-63ZM-62 888C-62.5523 888 -63 887.552 -63 887H-65C-65 888.657 -63.6568 890 -62 890V888ZM1474 887C1474 887.552 1473.55 888 1473 888V890C1474.66 890 1476 888.657 1476 887H1474ZM1473 -32C1473.55 -32 1474 -31.5523 1474 -31H1476C1476 -32.6569 1474.66 -34 1473 -34V-32ZM-62 -34C-63.6569 -34 -65 -32.6569 -65 -31H-63C-63 -31.5523 -62.5523 -32 -62 -32V-34Z" fill="black" fill-opacity="0.1"/>
</svg>
