<svg width="112" height="223" viewBox="0 0 112 223" fill="none" xmlns="http://www.w3.org/2000/svg">
<g clip-path="url(#clip0_37_3)">
<path fill-rule="evenodd" clip-rule="evenodd" d="M42.4316 89.3305L109.754 53.527C110.633 54.9283 111.073 56.5629 111.073 58.4307V215.59C111.073 218.396 108.806 220.501 104.273 221.904L42.4316 89.3305Z" fill="#00B45A"/>
<path fill-rule="evenodd" clip-rule="evenodd" d="M42.4288 89.3306L1.5105 1.6044C6.04402 -0.267136 10.074 -0.501309 13.6005 0.90188L105.781 50.0144C107.547 50.9511 108.87 52.1229 109.751 53.5298L42.4288 89.3306Z" fill="#00B45A"/>
<path fill-rule="evenodd" clip-rule="evenodd" d="M0 5.11148V162.27C0 166.012 1.76324 168.818 5.28973 170.69L100.491 221.204C104.017 223.076 105.781 222.14 105.781 218.397V61.2381C105.781 57.4969 104.017 54.6905 100.491 52.8189L5.28973 2.30418C1.76324 0.432641 0 1.36841 0 5.11148Z" fill="#FAFAFA" stroke="black" stroke-width="0.5" stroke-linecap="round" stroke-linejoin="round"/>
<path fill-rule="evenodd" clip-rule="evenodd" d="M5.28967 7.9187V159.466L100.494 209.981V58.4335L5.28967 7.9187Z" fill="url(#paint0_linear_37_3)"/>
<path d="M48.605 190.71C50.3687 191.729 52.4425 191.439 53.2368 190.063C54.0312 188.687 53.2454 186.746 51.4817 185.728C49.718 184.709 47.6442 184.999 46.8498 186.375C46.0555 187.751 46.8413 189.692 48.605 190.71Z" fill="#00B45A"/>
<path fill-rule="evenodd" clip-rule="evenodd" d="M51.6865 47.4292L12.4954 24.9902V41.4259L51.6865 63.8648V47.4292ZM93.3379 71.0317L54.1467 48.5927V65.0283L93.3379 87.4673V71.0317ZM51.6865 68.2549L12.4954 45.8159V62.2516L51.6865 84.6905V68.2549ZM93.3379 91.8574L54.1467 69.4184V85.854L93.3379 108.293V91.8574ZM51.6865 109.906L12.4954 87.4673V103.903L51.6865 126.342V109.906ZM93.3379 133.509L54.1467 111.07V127.505L93.3379 149.944V133.509ZM93.3379 112.683L54.1467 90.2441V106.68L93.3379 129.119V112.683ZM27.6231 75.2357L12.4954 66.6416V84.5184L27.6231 93.1124V75.2357ZM50.3676 87.6395L35.2398 79.0454V96.9222L50.3676 105.516V87.6395Z" fill="#FAFAFA"/>
</g>
<defs>
<linearGradient id="paint0_linear_37_3" x1="5.28967" y1="7.9187" x2="15587" y2="7349.44" gradientUnits="userSpaceOnUse">
<stop stop-color="#4E4E4E"/>
<stop offset="1" stop-color="#00387F"/>
</linearGradient>
<clipPath id="clip0_37_3">
<rect width="111.073" height="222.14" fill="white"/>
</clipPath>
</defs>
</svg>
